<?xml version="1.0" standalone="no"?>
<!DOCTYPE svg PUBLIC "-//W3C//DTD SVG 20010904//EN"
 "http://www.w3.org/TR/2001/REC-SVG-20010904/DTD/svg10.dtd">
<svg version="1.0" xmlns="http://www.w3.org/2000/svg"
 width="70.000000pt" height="70.000000pt" viewBox="0 0 70.000000 70.000000"
 preserveAspectRatio="xMidYMid meet">
<metadata>
Created by potrace 1.11, written by Peter Selinger 2001-2013
</metadata>
<g transform="translate(0.000000,70.000000) scale(0.100000,-0.100000)"
fill="#000000" stroke="none">
<path d="M203 574 c-81 -58 -158 -116 -170 -127 l-21 -22 60 -185 c33 -102 65
-191 70 -198 8 -9 60 -12 216 -10 l205 3 58 172 c31 95 60 185 64 201 5 27 -1
33 -132 128 -75 54 -152 109 -169 121 l-33 23 -148 -106z m259 -83 c62 -43 83
-85 83 -166 0 -59 -4 -78 -24 -107 -39 -57 -84 -82 -157 -86 -54 -4 -70 -1
-107 21 -60 36 -70 49 -53 72 13 18 15 18 50 -12 65 -58 144 -55 206 7 66 66
66 144 0 210 -78 78 -194 58 -246 -41 -14 -28 -14 -29 11 -29 14 0 25 -3 25
-8 0 -9 -69 -112 -75 -112 -6 0 -75 103 -75 112 0 5 13 8 29 8 23 0 30 5 36
28 10 43 54 92 99 113 57 27 151 22 198 -10z m-72 -97 c-15 -38 -13 -42 22
-46 l33 -3 -55 -60 c-62 -69 -74 -77 -60 -40 15 40 13 44 -24 47 l-35 3 56 63
c59 66 79 78 63 36z"/>
</g>
</svg>
